<svg xmlns="http://www.w3.org/2000/svg" version="1.1" height="336" width="472" viewBox="0 0 472 336" class="diagram" text-anchor="middle" font-family="monospace" font-size="13px">
<path d="M 56,64 L 56,272" fill="none" stroke="black"/>
<path d="M 72,144 L 72,224" fill="none" stroke="black"/>
<path d="M 168,144 L 168,224" fill="none" stroke="black"/>
<path d="M 184,64 L 184,272" fill="none" stroke="black"/>
<path d="M 280,64 L 280,272" fill="none" stroke="black"/>
<path d="M 296,144 L 296,224" fill="none" stroke="black"/>
<path d="M 392,144 L 392,224" fill="none" stroke="black"/>
<path d="M 408,64 L 408,272" fill="none" stroke="black"/>
<path d="M 112,16 L 176,16" fill="none" stroke="black"/>
<path d="M 280,16 L 344,16" fill="none" stroke="black"/>
<path d="M 56,64 L 184,64" fill="none" stroke="black"/>
<path d="M 280,64 L 408,64" fill="none" stroke="black"/>
<path d="M 72,144 L 168,144" fill="none" stroke="black"/>
<path d="M 296,144 L 392,144" fill="none" stroke="black"/>
<path d="M 192,176 L 272,176" fill="none" stroke="black"/>
<path d="M 72,224 L 168,224" fill="none" stroke="black"/>
<path d="M 296,224 L 392,224" fill="none" stroke="black"/>
<path d="M 56,272 L 184,272" fill="none" stroke="black"/>
<path d="M 280,272 L 408,272" fill="none" stroke="black"/>
<path d="M 16,304 L 32,304" fill="none" stroke="black"/>
<path d="M 168,304 L 184,304" fill="none" stroke="black"/>
<path d="M 288,304 L 304,304" fill="none" stroke="black"/>
<path d="M 440,304 L 456,304" fill="none" stroke="black"/>
<polygon class="arrowhead" points="280,176 268,170.4 268,181.6 " fill="black" transform="rotate(0,272,176)"/>
<polygon class="arrowhead" points="200,176 188,170.4 188,181.6 " fill="black" transform="rotate(180,192,176)"/>
<g class="text">
<text x="104" y="20">/</text>
<text x="228" y="20">Radio Link</text>
<text x="352" y="20">\</text>
<text x="140" y="36">Near End</text>
<text x="312" y="36">Far End</text>
<text x="116" y="84">Radio Link</text>
<text x="332" y="84">Radio Link</text>
<text x="116" y="100">Terminal A</text>
<text x="332" y="100">Terminal B</text>
<text x="232" y="164">Carrier A</text>
<text x="120" y="180">Carrier</text>
<text x="344" y="180">Carrier</text>
<text x="120" y="196">Termination</text>
<text x="344" y="196">Termination</text>
<text x="120" y="212">1</text>
<text x="344" y="212">1</text>
<text x="8" y="308">\</text>
<text x="100" y="308">Microwave Node</text>
<text x="192" y="308">/</text>
<text x="280" y="308">\</text>
<text x="372" y="308">Microwave Node</text>
<text x="464" y="308">/</text>
</g>
</svg>
