<svg xmlns="http://www.w3.org/2000/svg" version="1.1" height="272" width="448" viewBox="0 0 448 272" class="diagram" text-anchor="middle" font-family="monospace" font-size="13px" stroke-linecap="round">
<path d="M 8,48 L 8,112" fill="none" stroke="black"/>
<path d="M 72,48 L 72,112" fill="none" stroke="black"/>
<path d="M 96,48 L 96,112" fill="none" stroke="black"/>
<path d="M 160,48 L 160,112" fill="none" stroke="black"/>
<path d="M 184,64 L 184,96" fill="none" stroke="black"/>
<path d="M 224,64 L 224,96" fill="none" stroke="black"/>
<path d="M 264,64 L 264,96" fill="none" stroke="black"/>
<path d="M 288,48 L 288,112" fill="none" stroke="black"/>
<path d="M 352,48 L 352,112" fill="none" stroke="black"/>
<path d="M 376,48 L 376,112" fill="none" stroke="black"/>
<path d="M 440,48 L 440,112" fill="none" stroke="black"/>
<path d="M 8,48 L 72,48" fill="none" stroke="black"/>
<path d="M 96,48 L 160,48" fill="none" stroke="black"/>
<path d="M 200,48 L 208,48" fill="none" stroke="black"/>
<path d="M 240,48 L 248,48" fill="none" stroke="black"/>
<path d="M 288,48 L 352,48" fill="none" stroke="black"/>
<path d="M 376,48 L 440,48" fill="none" stroke="black"/>
<path d="M 72,80 L 96,80" fill="none" stroke="black"/>
<path d="M 160,80 L 184,80" fill="none" stroke="black"/>
<path d="M 264,80 L 288,80" fill="none" stroke="black"/>
<path d="M 352,80 L 376,80" fill="none" stroke="black"/>
<path d="M 8,112 L 72,112" fill="none" stroke="black"/>
<path d="M 96,112 L 160,112" fill="none" stroke="black"/>
<path d="M 200,112 L 208,112" fill="none" stroke="black"/>
<path d="M 240,112 L 248,112" fill="none" stroke="black"/>
<path d="M 288,112 L 352,112" fill="none" stroke="black"/>
<path d="M 376,112 L 440,112" fill="none" stroke="black"/>
<path d="M 8,160 L 56,160" fill="none" stroke="black"/>
<path d="M 96,160 L 144,160" fill="none" stroke="black"/>
<path d="M 288,160 L 328,160" fill="none" stroke="black"/>
<path d="M 376,160 L 416,160" fill="none" stroke="black"/>
<path d="M 8,192 L 56,192" fill="none" stroke="black"/>
<path d="M 96,192 L 144,192" fill="none" stroke="black"/>
<path d="M 288,192 L 328,192" fill="none" stroke="black"/>
<path d="M 376,192 L 416,192" fill="none" stroke="black"/>
<path d="M 24,224 L 64,224" fill="none" stroke="black"/>
<path d="M 112,224 L 152,224" fill="none" stroke="black"/>
<path d="M 304,224 L 352,224" fill="none" stroke="black"/>
<path d="M 392,224 L 440,224" fill="none" stroke="black"/>
<path d="M 24,256 L 64,256" fill="none" stroke="black"/>
<path d="M 112,256 L 152,256" fill="none" stroke="black"/>
<path d="M 304,256 L 352,256" fill="none" stroke="black"/>
<path d="M 392,256 L 440,256" fill="none" stroke="black"/>
<path d="M 208,64 L 224,96" fill="none" stroke="black"/>
<path d="M 224,64 L 240,96" fill="none" stroke="black"/>
<path d="M 200,48 C 191.16936,48 184,55.16936 184,64" fill="none" stroke="black"/>
<path d="M 248,48 C 256.83064,48 264,55.16936 264,64" fill="none" stroke="black"/>
<path d="M 200,112 C 191.16936,112 184,104.83064 184,96" fill="none" stroke="black"/>
<path d="M 248,112 C 256.83064,112 264,104.83064 264,96" fill="none" stroke="black"/>
<path d="M 56,160 C 64.83064,160 72,167.16936 72,176" fill="none" stroke="black"/>
<path d="M 144,160 C 152.83064,160 160,167.16936 160,176" fill="none" stroke="black"/>
<path d="M 328,160 C 336.83064,160 344,167.16936 344,176" fill="none" stroke="black"/>
<path d="M 416,160 C 424.83064,160 432,167.16936 432,176" fill="none" stroke="black"/>
<path d="M 56,192 C 64.83064,192 72,184.83064 72,176" fill="none" stroke="black"/>
<path d="M 144,192 C 152.83064,192 160,184.83064 160,176" fill="none" stroke="black"/>
<path d="M 328,192 C 336.83064,192 344,184.83064 344,176" fill="none" stroke="black"/>
<path d="M 416,192 C 424.83064,192 432,184.83064 432,176" fill="none" stroke="black"/>
<path d="M 24,224 C 15.16936,224 8,231.16936 8,240" fill="none" stroke="black"/>
<path d="M 112,224 C 103.16936,224 96,231.16936 96,240" fill="none" stroke="black"/>
<path d="M 304,224 C 295.16936,224 288,231.16936 288,240" fill="none" stroke="black"/>
<path d="M 392,224 C 383.16936,224 376,231.16936 376,240" fill="none" stroke="black"/>
<path d="M 24,256 C 15.16936,256 8,248.83064 8,240" fill="none" stroke="black"/>
<path d="M 112,256 C 103.16936,256 96,248.83064 96,240" fill="none" stroke="black"/>
<path d="M 304,256 C 295.16936,256 288,248.83064 288,240" fill="none" stroke="black"/>
<path d="M 392,256 C 383.16936,256 376,248.83064 376,240" fill="none" stroke="black"/>
<polygon class="arrowhead" points="448,256 436,250.4 436,261.6" fill="black" transform="rotate(0,440,256)"/>
<polygon class="arrowhead" points="384,192 372,186.4 372,197.6" fill="black" transform="rotate(180,376,192)"/>
<polygon class="arrowhead" points="360,256 348,250.4 348,261.6" fill="black" transform="rotate(0,352,256)"/>
<polygon class="arrowhead" points="296,192 284,186.4 284,197.6" fill="black" transform="rotate(180,288,192)"/>
<polygon class="arrowhead" points="160,256 148,250.4 148,261.6" fill="black" transform="rotate(0,152,256)"/>
<polygon class="arrowhead" points="104,192 92,186.4 92,197.6" fill="black" transform="rotate(180,96,192)"/>
<polygon class="arrowhead" points="72,256 60,250.4 60,261.6" fill="black" transform="rotate(0,64,256)"/>
<polygon class="arrowhead" points="16,192 4,186.4 4,197.6" fill="black" transform="rotate(180,8,192)"/>
<g class="text">
<text x="84" y="36">Near-End Element</text>
<text x="368" y="36">Far-End Element</text>
<text x="40" y="68">Modem</text>
<text x="128" y="68">Radio</text>
<text x="320" y="68">Radio</text>
<text x="408" y="68">Modem</text>
<text x="36" y="84">Unit</text>
<text x="124" y="84">Unit</text>
<text x="316" y="84">Unit</text>
<text x="404" y="84">Unit</text>
<text x="40" y="132">if-loop</text>
<text x="128" y="132">rf-loop</text>
<text x="320" y="132">rf-loop</text>
<text x="408" y="132">if-loop</text>
<text x="36" y="180">client</text>
<text x="124" y="180">client</text>
<text x="312" y="180">radio</text>
<text x="400" y="180">radio</text>
<text x="40" y="244">radio</text>
<text x="128" y="244">radio</text>
<text x="324" y="244">client</text>
<text x="412" y="244">client</text>
</g>
</svg>
